<?xml version="1.0" encoding="utf-8"?>
<!-- Generator: Adobe Illustrator 23.0.2, SVG Export Plug-In . SVG Version: 6.00 Build 0)  -->
<svg version="1.1" xmlns="http://www.w3.org/2000/svg" xmlns:xlink="http://www.w3.org/1999/xlink" x="0px" y="0px"
	 viewBox="0 0 792 612" style="enable-background:new 0 0 792 612;" xml:space="preserve">
<style type="text/css">
	.st0{fill:#1C96B7;stroke:#FFFFFF;stroke-width:0.9005;stroke-miterlimit:10;}
	.st1{fill:#FFFFFF;stroke:#000000;stroke-width:0.9005;stroke-miterlimit:10;}
	.st2{fill:#D82327;stroke:#000000;stroke-width:0.9005;stroke-miterlimit:10;}
	.st3{stroke:#FFFFFF;stroke-width:0.9005;stroke-miterlimit:10;}
	.st4{fill:#A02790;stroke:#000000;stroke-width:2;stroke-miterlimit:10;}
	.st5{fill:none;stroke:#000000;stroke-miterlimit:10;}
	.st6{fill:none;stroke:#000000;stroke-width:1.4935;stroke-miterlimit:10;}
	.st7{fill:none;stroke:#000000;stroke-width:1.6875;stroke-miterlimit:10;}
	.st8{fill:#ABDEE0;}
	.st9{fill:#A49A9A;}
	.st10{opacity:0.65;fill:url(#SVGID_1_);}
	.st11{opacity:0.65;fill:url(#SVGID_2_);}
	.st12{opacity:0.65;fill:url(#SVGID_3_);}
	.st13{opacity:0.74;fill:url(#SVGID_4_);}
	.st14{opacity:0.65;fill:url(#SVGID_5_);}
	.st15{opacity:0.65;fill:url(#SVGID_6_);}
	.st16{opacity:0.74;fill:url(#SVGID_7_);}
	.st17{opacity:0.74;fill:url(#SVGID_8_);}
	.st18{fill:#756666;}
	.st19{fill:#AA9587;stroke:#FFFFFF;stroke-width:1.1478;stroke-miterlimit:10;}
	.st20{fill:#FCB017;stroke:#000000;stroke-miterlimit:10;}
	.st21{fill:#AA9587;stroke:#FFFFFF;stroke-width:1.0092;stroke-miterlimit:10;}
	.st22{fill:#ED1C24;stroke:#000000;stroke-width:0.8792;stroke-miterlimit:10;}
	.st23{fill:#E3E3E8;stroke:#000000;stroke-width:0.8792;stroke-miterlimit:10;}
	.st24{fill:none;stroke:#000000;stroke-width:0.0879;stroke-miterlimit:10;}
	.st25{fill:#1C96B7;stroke:#FFFFFF;stroke-width:0.0616;stroke-miterlimit:10;}
	.st26{fill:#FFFFFF;stroke:#000000;stroke-width:0.0616;stroke-miterlimit:10;}
	.st27{fill:#D82327;stroke:#000000;stroke-width:0.0616;stroke-miterlimit:10;}
	.st28{stroke:#FFFFFF;stroke-width:0.0616;stroke-miterlimit:10;}
	.st29{fill:#A02790;stroke:#000000;stroke-width:0.1369;stroke-miterlimit:10;}
	.st30{fill:none;stroke:#000000;stroke-width:0.0684;stroke-miterlimit:10;}
	.st31{fill:#AA9587;stroke:#FFFFFF;stroke-width:1.1567;stroke-miterlimit:10;}
	.st32{fill:#554335;}
	.st33{fill:#AA9587;stroke:#FFFFFF;stroke-width:1.0005;stroke-miterlimit:10;}
	.st34{stroke:#FFFFFF;stroke-width:0.5552;stroke-miterlimit:10;}
	.st35{fill:#FFFEFF;}
	.st36{font-family:'Oswald-Bold';}
	.st37{font-size:5.377px;}
	.st38{fill:#1C96B7;stroke:#FFFFFF;stroke-width:0.051;stroke-miterlimit:10;}
	.st39{fill:#FFFFFF;stroke:#000000;stroke-width:0.051;stroke-miterlimit:10;}
	.st40{fill:#D82327;stroke:#000000;stroke-width:0.051;stroke-miterlimit:10;}
	.st41{stroke:#FFFFFF;stroke-width:0.051;stroke-miterlimit:10;}
	.st42{fill:#A02790;stroke:#000000;stroke-width:0.1133;stroke-miterlimit:10;}
	.st43{fill:none;stroke:#000000;stroke-width:0.0567;stroke-miterlimit:10;}
	.st44{fill:none;stroke:#000000;stroke-width:1.4369;stroke-miterlimit:10;}
	.st45{fill:#FFFFFF;}
	.st46{fill:#AA9587;stroke:#000000;stroke-width:1.4369;stroke-miterlimit:10;}
	.st47{fill:none;stroke:#FFFFFF;stroke-width:2.8739;stroke-miterlimit:10;}
	.st48{fill:none;}
	.st49{fill:none;stroke:#FFFFFF;stroke-width:2.9611;stroke-miterlimit:10;}
	.st50{fill:#1C96B7;stroke:#FFFFFF;stroke-width:0.1223;stroke-miterlimit:10;}
	.st51{fill:#FFFFFF;stroke:#000000;stroke-width:0.1223;stroke-miterlimit:10;}
	.st52{fill:#D82327;stroke:#000000;stroke-width:0.1223;stroke-miterlimit:10;}
	.st53{stroke:#FFFFFF;stroke-width:0.1223;stroke-miterlimit:10;}
	.st54{fill:#A02790;stroke:#000000;stroke-width:0.2715;stroke-miterlimit:10;}
	.st55{fill:none;stroke:#000000;stroke-width:0.1358;stroke-miterlimit:10;}
</style>
<g id="Icon">
	<g id="Final_Icon">
		<polygon class="st0" points="-412.5,476 -363.14,390.5 -461.86,390.5 -412.5,476 -363.14,390.5 -461.86,390.5 		"/>
		<polygon class="st0" points="-568.25,321.25 -482.75,370.61 -482.75,271.89 -568.25,321.25 -482.75,370.61 -482.75,271.89 		"/>
		<polygon class="st0" points="-256.75,321.25 -342.25,271.89 -342.25,370.61 -256.75,321.25 -342.25,271.89 -342.25,370.61 		"/>
		<polygon class="st0" points="-412.5,165.5 -461.86,251 -363.14,251 -412.5,165.5 -461.86,251 -363.14,251 		"/>
		<circle class="st1" cx="-412.25" cy="320.75" r="88.25"/>
		<circle class="st2" cx="-412.25" cy="320.75" r="88.25"/>
		<circle class="st1" cx="-412.25" cy="320.75" r="70.24"/>
		<circle class="st0" cx="-412.25" cy="320.75" r="40.24"/>
		<path class="st3" d="M-412.25,340.99c-11.16,0-20.24-9.08-20.24-20.24c0-11.16,9.08-20.24,20.24-20.24s20.24,9.08,20.24,20.24
			C-392.01,331.91-401.09,340.99-412.25,340.99z"/>
		<line class="st4" x1="-412.5" y1="251" x2="-413" y2="166"/>
		<path class="st5" d="M-257.25,320.75l-85,0.5c-18.75-28.25-68.25-96.75-140.5,0l-85,0.5"/>
		<path class="st5" d="M-567.75,322.26l85-0.5c18.75,28.25,68.25,96.75,140.5,0l85-0.5"/>
		<line class="st4" x1="-412.5" y1="390.5" x2="-412" y2="475.5"/>
	</g>
	<g id="Icon_Description">
		<line class="st6" x1="-517.25" y1="299.38" x2="-551" y2="219"/>
		<text transform="matrix(1 0 0 1 -662.4946 197.8965)"><tspan x="0" y="0" style="font-family:'MyriadPro-Regular'; font-size:14px;">The blue symbolizes being trustworthy</tspan><tspan x="82.44" y="16.8" style="font-family:'MyriadPro-Regular'; font-size:14px;">and loyal.  </tspan></text>
		<line class="st6" x1="-524.89" y1="439.03" x2="-461.35" y2="379.35"/>
		<text transform="matrix(1 0 0 1 -643.9297 454.8965)"><tspan x="0" y="0" style="font-family:'MyriadPro-Regular'; font-size:14px;">The red symbolizes determination,</tspan><tspan x="35.48" y="16.8" style="font-family:'MyriadPro-Regular'; font-size:14px;">strength, and energy.  </tspan></text>
		<line class="st7" x1="-369.69" y1="337.93" x2="-290.46" y2="411.35"/>
		<text transform="matrix(1 0 0 1 -378.0977 433.8965)"><tspan x="0" y="0" style="font-family:'MyriadPro-Regular'; font-size:14px;">The eye has the colour blue in</tspan><tspan x="-4.66" y="16.8" style="font-family:'MyriadPro-Regular'; font-size:14px;">it, representing what I mention </tspan><tspan x="-5.9" y="33.6" style="font-family:'MyriadPro-Regular'; font-size:14px;">above. The eye itself symbolizes</tspan><tspan x="-14.66" y="50.4" style="font-family:'MyriadPro-Regular'; font-size:14px;">the quality of me being observant. </tspan></text>
		<line class="st7" x1="-344.12" y1="256.8" x2="-288.02" y2="164.49"/>
		<text transform="matrix(1 0 0 1 -386.6377 100.8965)"><tspan x="0" y="0" style="font-family:'MyriadPro-Regular'; font-size:14px;">The icon as a whole symbolizes a</tspan><tspan x="13.05" y="16.8" style="font-family:'MyriadPro-Regular'; font-size:14px;">compass, showing that I am </tspan><tspan x="-7.76" y="33.6" style="font-family:'MyriadPro-Regular'; font-size:14px;">adventurous and willing to try new </tspan><tspan x="74.16" y="50.4" style="font-family:'MyriadPro-Regular'; font-size:14px;">things. </tspan></text>
		
			<text transform="matrix(1 0 0 1 -650.98 59.8818)" class="st36" style="fill:#1C96B7;stroke:#FFFFFF;stroke-width:1.3235;stroke-miterlimit:10; font-size:52.9079px;">Nico’s Icon</text>
	</g>
</g>
<g id="Background">
	<rect class="st8" width="792" height="612"/>
</g>
<g id="Mountains">
	<path id="Mountain_1" class="st9" d="M-0.5,98.55C13.26,90.77,21.64,82.4,21.64,82.4c8.97-2.39,20.34-3.59,20.34-3.59
		c22.43-8.08,30.81-22.43,30.81-22.43c9.57-8.38,13.76-18.55,37.69-7.78c16.15-19.74,20.34-23.93,23.33-19.74s2.39,8.97,5.98,1.79
		c2.39-2.99,10.77,4.19,22.14,13.16c10.17,10.77,16.15,16.15,16.15,16.15c5.38,5.98,6.58,7.18,13.16,7.78
		c7.18,1.79,5.38,4.79,5.38,4.79c9.57,0,15.55-0.6,15.55-0.6c7.18-0.6,8.38-1.79,10.17-2.99c4.19-2.99,7.78-5.98,15.55,0.6
		l20.94,16.15c1.79,2.39,2.99-0.6,10.77,5.38c7.18-4.19,10.77-6.58,15.55-2.39c3.59,2.99,12.56,2.39,12.56,2.39
		c11.37,1.79,20.94,7.78,25.73,11.97c10.77-1.2,19.74-1.2,19.74-1.2c5.98,2.39,8.97,3.59,17.95,17.95c4.79,0,7.18,0,13.16,7.78
		c8.38,0,14.96,1.2,17.95,3.59c4.19,4.19,17.95-2.39,19.74,1.79v110.68H-0.2L-0.5,98.55z"/>
	<path id="Mountain_1_1_" class="st9" d="M792,99.35c-13.21-7.47-21.25-15.51-21.25-15.51c-8.61-2.3-19.53-3.45-19.53-3.45
		c-21.54-7.75-29.58-21.54-29.58-21.54c-9.19-8.04-13.21-17.8-36.18-7.47c-15.51-18.95-19.53-22.97-22.4-18.95s-2.3,8.61-5.74,1.72
		c-2.3-2.87-10.34,4.02-21.25,12.64c-9.76,10.34-15.51,15.51-15.51,15.51c-5.17,5.74-6.32,6.89-12.64,7.47
		c-6.89,1.72-5.17,4.59-5.17,4.59c-9.19,0-14.93-0.57-14.93-0.57c-6.89-0.57-8.04-1.72-9.76-2.87c-4.02-2.87-7.47-5.74-14.93,0.57
		l-20.1,15.51c-1.72,2.3-2.87-0.57-10.34,5.17c-6.89-4.02-10.34-6.32-14.93-2.3c-3.45,2.87-12.06,2.3-12.06,2.3
		c-10.91,1.72-20.1,7.47-24.7,11.49c-10.34-1.15-18.95-1.15-18.95-1.15c-5.74,2.3-8.61,3.45-17.23,17.23c-4.59,0-6.89,0-12.64,7.47
		c-8.04,0-14.36,1.15-17.23,3.45c-4.02,4.02-17.23-2.3-18.95,1.72v106.25h395.71L792,99.35z"/>
</g>
<g id="Clouds">
	<g id="Clouds_1_">
		<linearGradient id="SVGID_1_" gradientUnits="userSpaceOnUse" x1="609.2476" y1="456.9637" x2="501.5449" y2="349.261">
			<stop  offset="0" style="stop-color:#F16B93;stop-opacity:0.4"/>
			<stop  offset="0.0452" style="stop-color:#EC7397;stop-opacity:0.4271"/>
			<stop  offset="0.389" style="stop-color:#D6A3B4;stop-opacity:0.6334"/>
			<stop  offset="0.6737" style="stop-color:#C2C4CB;stop-opacity:0.8042"/>
			<stop  offset="0.8852" style="stop-color:#B3D5D9;stop-opacity:0.9311"/>
			<stop  offset="1" style="stop-color:#ACDEE0"/>
		</linearGradient>
		<path class="st10" d="M622.54,367.72c-3.75,0-7.34,0.66-10.67,1.86c-7.02-15.66-22.74-26.58-41.02-26.58
			c-18.08,0-33.65,10.68-40.79,26.07c-2.92-0.88-6.01-1.35-9.21-1.35c-12.81,0-23.86,7.53-28.98,18.4
			c-3.81-2.4-8.32-3.79-13.15-3.79c-13.65,0-24.72,11.07-24.72,24.72c0,13.65,11.07,24.72,24.72,24.72c7.88,0,14.9-3.7,19.43-9.45
			c5.8,5.83,13.83,9.45,22.71,9.45c8.5,0,16.22-3.32,21.95-8.72c7.69,6.15,17.44,9.84,28.05,9.84c11.38,0,21.77-4.24,29.69-11.22
			c5.67,5.55,13.43,8.97,21.99,8.97c17.38,0,31.46-14.09,31.46-31.46C654,381.8,639.91,367.72,622.54,367.72z"/>
		<linearGradient id="SVGID_2_" gradientUnits="userSpaceOnUse" x1="161.7228" y1="467.5673" x2="64.7904" y2="370.6349">
			<stop  offset="0" style="stop-color:#F16B93;stop-opacity:0.4"/>
			<stop  offset="0.0452" style="stop-color:#EC7397;stop-opacity:0.4271"/>
			<stop  offset="0.389" style="stop-color:#D6A3B4;stop-opacity:0.6334"/>
			<stop  offset="0.6737" style="stop-color:#C2C4CB;stop-opacity:0.8042"/>
			<stop  offset="0.8852" style="stop-color:#B3D5D9;stop-opacity:0.9311"/>
			<stop  offset="1" style="stop-color:#ACDEE0"/>
		</linearGradient>
		<path class="st11" d="M173.69,387.25c-3.37,0-6.6,0.59-9.6,1.67c-6.32-14.1-20.47-23.92-36.92-23.92
			c-16.27,0-30.29,9.61-36.71,23.46c-2.63-0.79-5.41-1.22-8.29-1.22c-11.53,0-21.48,6.78-26.08,16.56
			c-3.43-2.16-7.49-3.41-11.84-3.41c-12.29,0-22.25,9.96-22.25,22.25c0,12.29,9.96,22.25,22.25,22.25c7.1,0,13.41-3.33,17.49-8.5
			c5.22,5.25,12.45,8.5,20.44,8.5c7.65,0,14.59-2.98,19.75-7.85c6.92,5.54,15.69,8.86,25.25,8.86c10.25,0,19.6-3.82,26.72-10.1
			c5.11,4.99,12.09,8.08,19.79,8.08c15.64,0,28.31-12.68,28.31-28.31C202,399.92,189.32,387.25,173.69,387.25z"/>
		<linearGradient id="SVGID_3_" gradientUnits="userSpaceOnUse" x1="757.4" y1="89.0573" x2="703.0102" y2="34.6674">
			<stop  offset="0" style="stop-color:#F16B93;stop-opacity:0.4"/>
			<stop  offset="0.0452" style="stop-color:#EC7397;stop-opacity:0.4271"/>
			<stop  offset="0.389" style="stop-color:#D6A3B4;stop-opacity:0.6334"/>
			<stop  offset="0.6737" style="stop-color:#C2C4CB;stop-opacity:0.8042"/>
			<stop  offset="0.8852" style="stop-color:#B3D5D9;stop-opacity:0.9311"/>
			<stop  offset="1" style="stop-color:#ACDEE0"/>
		</linearGradient>
		<path class="st12" d="M764.11,43.99c-1.89,0-3.7,0.33-5.39,0.94c-3.55-7.91-11.48-13.42-20.71-13.42c-9.13,0-17,5.39-20.6,13.17
			c-1.47-0.44-3.03-0.68-4.65-0.68c-6.47,0-12.05,3.8-14.64,9.29c-1.92-1.21-4.2-1.92-6.64-1.92c-6.89,0-12.48,5.59-12.48,12.48
			s5.59,12.48,12.48,12.48c3.98,0,7.53-1.87,9.81-4.77c2.93,2.95,6.98,4.77,11.47,4.77c4.29,0,8.19-1.67,11.08-4.4
			c3.88,3.11,8.81,4.97,14.17,4.97c5.75,0,11-2.14,15-5.67c2.86,2.8,6.78,4.53,11.11,4.53c8.77,0,15.89-7.11,15.89-15.89
			C780,51.1,772.89,43.99,764.11,43.99z"/>
		<linearGradient id="SVGID_4_" gradientUnits="userSpaceOnUse" x1="343.9394" y1="532.3591" x2="281.8742" y2="470.2939">
			<stop  offset="0" style="stop-color:#F16B93;stop-opacity:0.4"/>
			<stop  offset="0.0452" style="stop-color:#EC7397;stop-opacity:0.4271"/>
			<stop  offset="0.389" style="stop-color:#D6A3B4;stop-opacity:0.6334"/>
			<stop  offset="0.6737" style="stop-color:#C2C4CB;stop-opacity:0.8042"/>
			<stop  offset="0.8852" style="stop-color:#B3D5D9;stop-opacity:0.9311"/>
			<stop  offset="1" style="stop-color:#ACDEE0"/>
		</linearGradient>
		<path class="st13" d="M356.02,479.29c-0.12,0-0.23,0.01-0.35,0.01c-1.85-10.4-10.93-18.29-21.85-18.29
			c-10.34,0-19.03,7.07-21.5,16.64c-5.05,0.88-9.47,3.6-12.54,7.44c-2.32-1.2-4.96-1.88-7.75-1.88c-5.16,0-9.79,2.31-12.9,5.95
			c-2.17-0.88-4.53-1.37-7.02-1.37c-10.28,0-18.61,8.33-18.61,18.61c0,10.28,8.33,18.61,18.61,18.61c6.51,0,12.23-3.34,15.56-8.4
			c1.39,0.37,2.85,0.57,4.36,0.57c3.96,0,7.59-1.36,10.48-3.63c3.59,3.07,8.26,4.93,13.36,4.93c4.48,0,8.63-1.44,12-3.87
			c2.29,2,5.29,3.22,8.57,3.22c4.9,0,9.16-2.7,11.39-6.68c2.43,1.34,5.23,2.11,8.2,2.11c9.38,0,16.98-7.6,16.98-16.98
			C373,486.89,365.4,479.29,356.02,479.29z"/>
		<linearGradient id="SVGID_5_" gradientUnits="userSpaceOnUse" x1="589.7228" y1="134.5673" x2="492.7904" y2="37.6349">
			<stop  offset="0" style="stop-color:#F16B93;stop-opacity:0.4"/>
			<stop  offset="0.0452" style="stop-color:#EC7397;stop-opacity:0.4271"/>
			<stop  offset="0.389" style="stop-color:#D6A3B4;stop-opacity:0.6334"/>
			<stop  offset="0.6737" style="stop-color:#C2C4CB;stop-opacity:0.8042"/>
			<stop  offset="0.8852" style="stop-color:#B3D5D9;stop-opacity:0.9311"/>
			<stop  offset="1" style="stop-color:#ACDEE0"/>
		</linearGradient>
		<path class="st14" d="M601.69,54.25c-3.37,0-6.6,0.59-9.6,1.67C585.76,41.82,571.62,32,555.17,32c-16.27,0-30.29,9.61-36.71,23.46
			c-2.63-0.79-5.41-1.22-8.29-1.22c-11.53,0-21.48,6.78-26.08,16.56c-3.43-2.16-7.49-3.41-11.84-3.41
			c-12.29,0-22.25,9.96-22.25,22.25s9.96,22.25,22.25,22.25c7.1,0,13.41-3.33,17.49-8.5c5.22,5.25,12.45,8.5,20.44,8.5
			c7.65,0,14.59-2.98,19.75-7.85c6.92,5.54,15.69,8.86,25.25,8.86c10.25,0,19.6-3.82,26.72-10.1c5.11,4.99,12.09,8.08,19.79,8.08
			c15.64,0,28.31-12.68,28.31-28.31C630,66.92,617.32,54.25,601.69,54.25z"/>
		<linearGradient id="SVGID_6_" gradientUnits="userSpaceOnUse" x1="369.2475" y1="122.9637" x2="261.5449" y2="15.261">
			<stop  offset="0" style="stop-color:#F16B93;stop-opacity:0.4"/>
			<stop  offset="0.0452" style="stop-color:#EC7397;stop-opacity:0.4271"/>
			<stop  offset="0.389" style="stop-color:#D6A3B4;stop-opacity:0.6334"/>
			<stop  offset="0.6737" style="stop-color:#C2C4CB;stop-opacity:0.8042"/>
			<stop  offset="0.8852" style="stop-color:#B3D5D9;stop-opacity:0.9311"/>
			<stop  offset="1" style="stop-color:#ACDEE0"/>
		</linearGradient>
		<path class="st15" d="M382.54,33.72c-3.75,0-7.34,0.66-10.67,1.86C364.85,19.92,349.13,9,330.85,9
			c-18.08,0-33.65,10.68-40.79,26.07c-2.92-0.88-6.01-1.35-9.21-1.35c-12.81,0-23.86,7.53-28.98,18.4
			c-3.81-2.4-8.32-3.79-13.15-3.79c-13.65,0-24.72,11.07-24.72,24.72s11.07,24.72,24.72,24.72c7.88,0,14.9-3.7,19.43-9.45
			c5.8,5.83,13.83,9.45,22.71,9.45c8.5,0,16.22-3.32,21.95-8.72c7.69,6.15,17.44,9.84,28.05,9.84c11.38,0,21.77-4.24,29.69-11.22
			c5.67,5.55,13.43,8.97,21.99,8.97c17.38,0,31.46-14.09,31.46-31.46C414,47.8,399.91,33.72,382.54,33.72z"/>
		<linearGradient id="SVGID_7_" gradientUnits="userSpaceOnUse" x1="104.9394" y1="93.3591" x2="42.8742" y2="31.2939">
			<stop  offset="0" style="stop-color:#F16B93;stop-opacity:0.4"/>
			<stop  offset="0.0452" style="stop-color:#EC7397;stop-opacity:0.4271"/>
			<stop  offset="0.389" style="stop-color:#D6A3B4;stop-opacity:0.6334"/>
			<stop  offset="0.6737" style="stop-color:#C2C4CB;stop-opacity:0.8042"/>
			<stop  offset="0.8852" style="stop-color:#B3D5D9;stop-opacity:0.9311"/>
			<stop  offset="1" style="stop-color:#ACDEE0"/>
		</linearGradient>
		<path class="st16" d="M117.02,40.29c-0.12,0-0.23,0.01-0.35,0.01C114.82,29.9,105.74,22,94.82,22c-10.34,0-19.03,7.07-21.5,16.64
			c-5.05,0.88-9.47,3.6-12.54,7.44c-2.32-1.2-4.96-1.88-7.75-1.88c-5.16,0-9.79,2.31-12.9,5.94c-2.17-0.88-4.53-1.37-7.02-1.37
			c-10.28,0-18.61,8.33-18.61,18.61S22.82,86,33.1,86c6.51,0,12.23-3.34,15.56-8.4c1.39,0.37,2.85,0.57,4.36,0.57
			c3.96,0,7.59-1.36,10.48-3.63c3.59,3.07,8.26,4.93,13.36,4.93c4.48,0,8.63-1.44,12-3.87c2.29,2,5.29,3.22,8.57,3.22
			c4.9,0,9.16-2.7,11.39-6.68c2.43,1.34,5.23,2.11,8.2,2.11c9.38,0,16.98-7.6,16.98-16.98C134,47.89,126.4,40.29,117.02,40.29z"/>
		<linearGradient id="SVGID_8_" gradientUnits="userSpaceOnUse" x1="729.9393" y1="524.3591" x2="667.8741" y2="462.2939">
			<stop  offset="0" style="stop-color:#F16B93;stop-opacity:0.4"/>
			<stop  offset="0.0452" style="stop-color:#EC7397;stop-opacity:0.4271"/>
			<stop  offset="0.389" style="stop-color:#D6A3B4;stop-opacity:0.6334"/>
			<stop  offset="0.6737" style="stop-color:#C2C4CB;stop-opacity:0.8042"/>
			<stop  offset="0.8852" style="stop-color:#B3D5D9;stop-opacity:0.9311"/>
			<stop  offset="1" style="stop-color:#ACDEE0"/>
		</linearGradient>
		<path class="st17" d="M742.02,471.29c-0.12,0-0.23,0.01-0.35,0.01c-1.85-10.4-10.93-18.29-21.85-18.29
			c-10.34,0-19.03,7.07-21.5,16.64c-5.05,0.88-9.47,3.6-12.54,7.44c-2.32-1.2-4.96-1.88-7.75-1.88c-5.16,0-9.79,2.31-12.9,5.95
			c-2.17-0.88-4.53-1.37-7.02-1.37c-10.28,0-18.61,8.33-18.61,18.61S647.82,517,658.1,517c6.51,0,12.23-3.34,15.56-8.4
			c1.39,0.37,2.85,0.57,4.36,0.57c3.96,0,7.59-1.36,10.48-3.63c3.59,3.07,8.26,4.93,13.36,4.93c4.48,0,8.63-1.44,12-3.87
			c2.29,2,5.29,3.22,8.57,3.22c4.9,0,9.16-2.7,11.39-6.68c2.43,1.34,5.23,2.11,8.2,2.11c9.38,0,16.98-7.6,16.98-16.98
			C759,478.89,751.4,471.29,742.02,471.29z"/>
	</g>
</g>
<g id="Floating_Objects">
	<g id="Basketball_Floating">
		<path id="Mountain_2_1_" class="st18" d="M182.03,502.74c-0.36-0.45-1.09-0.68-1.47,0.2c-0.38,0.88-2.39,0.33-4.64-2.98
			c-1.18-2.29-2.13,0.31-2.13,0.31c-0.79,0.93-2.44-0.78-2.44-0.78c-2.15,0.32-2.7,0.4-3.25,1.13c-0.88-0.51-1.98,0.61-1.98,0.61
			c-0.68,0.42-2.15-0.64-2.15-0.64c-0.88,0.93-2.61,1.66-3.5-0.9c-1.04-0.94-1.23-1.07-1.64,0.25c-0.4,1.32-1.1-0.77-1.1-0.77
			c-0.7-0.83-0.85,0.76-0.85,0.76c-0.27,1.76-1.28,0.2-1.28,0.2c-0.77,0.59-2.4-2.27-2.4-2.27c-0.58,1.18-1.28,2.68-3.82,1.69
			c-0.87,1.52-1.43,2.21-2.76,0.89c-0.98,0.76-1.58,0.4-1.58,0.4c-1.63,1.01-3.36,2.48-4.84,4.49c-1.47,2-2.63,3.93-4.57,0.37
			c-0.57-1.24-2.78,3.18-2.78,3.18c-0.45,0.79-0.84,1.28-1.34,1.06l-1.82-12.12l-0.22-42.5L183,439.3L182.03,502.74z"/>
		<path id="Mountain_1_3_" class="st9" d="M130,502.54c-2.23,2.64-3.59,5.5-3.59,5.5c-1.49,0.85-3.39,1.31-3.39,1.31
			c-3.79,2.88-5.2,7.9-5.2,7.9c-1.64,2.99-2.35,6.57-6.6,3.03c-2.86,7.15-3.61,8.69-4.16,7.23c-0.55-1.46-0.45-3.17-1.09-0.57
			c-0.43,1.1-1.98-1.37-4.09-4.47c-1.91-3.78-3.03-5.67-3.03-5.67c-1.02-2.12-1.25-2.54-2.49-2.72c-1.37-0.6-1.03-1.7-1.03-1.7
			c-1.83,0.06-2.98,0.31-2.98,0.31c-1.39,0.26-1.62,0.71-1.97,1.16c-0.82,1.13-1.52,2.26-3.05-0.12l-4.16-5.87
			c-0.36-0.88-0.6,0.24-2.16-1.96c-1.46,1.59-2.19,2.5-3.16,0.95c-0.73-1.11-2.58-0.85-2.58-0.85c-2.36-0.64-4.36-2.88-5.36-4.47
			c-2.29,0.48-4.21,0.49-4.21,0.49c-1.28-0.91-1.93-1.37-3.85-6.9c-1.04,0-1.57-0.01-2.87-3.03c-1.85-0.02-3.31-0.5-3.97-1.44
			c-0.93-1.65-4.05,0.89-4.45-0.77l0.34-43.17l78.63,7.77L130,502.54z"/>
		<polygon class="st19" points="129.43,454.49 53.33,446.45 109.8,431 180.07,439.58 		"/>
		<ellipse cx="122" cy="444.5" rx="32" ry="3.5"/>
		<circle class="st20" cx="122" cy="414" r="32"/>
		<line class="st20" x1="122.5" y1="381.5" x2="122.5" y2="445.5"/>
		<line class="st20" x1="90.5" y1="413.5" x2="154.5" y2="413.5"/>
		<path class="st5" d="M97.35,434.41c11.15-13.91,0-40.81,0-40.81"/>
		<path class="st5" d="M146.31,433.41c-11.15-13.91,0-40.81,0-40.81"/>
	</g>
	<g id="Book_Floating">
		<path id="Mountain_2_2_" class="st18" d="M370.14,566.79c-0.32-0.4-0.96-0.6-1.29,0.18c-0.33,0.78-2.11,0.29-4.08-2.62
			c-1.03-2.01-1.87,0.27-1.87,0.27c-0.69,0.82-2.14-0.69-2.14-0.69c-1.89,0.28-2.37,0.35-2.86,0.99c-0.77-0.45-1.74,0.54-1.74,0.54
			c-0.6,0.37-1.89-0.56-1.89-0.56c-0.77,0.81-2.29,1.46-3.08-0.79c-0.91-0.83-1.08-0.94-1.44,0.22c-0.35,1.16-0.96-0.68-0.96-0.68
			c-0.62-0.73-0.74,0.67-0.74,0.67c-0.24,1.55-1.13,0.17-1.13,0.17c-0.68,0.51-2.11-1.99-2.11-1.99c-0.51,1.03-1.12,2.36-3.36,1.49
			c-0.77,1.33-1.26,1.95-2.43,0.79c-0.86,0.67-1.39,0.35-1.39,0.35c-1.43,0.89-2.95,2.18-4.25,3.95c-1.29,1.75-2.31,3.46-4.02,0.33
			c-0.5-1.09-2.45,2.8-2.45,2.8c-0.4,0.69-0.74,1.13-1.18,0.93l-1.6-10.65l-0.19-37.37L371,511.02L370.14,566.79z"/>
		<path id="Mountain_1_2_" class="st9" d="M324.4,566.62c-1.96,2.32-3.16,4.84-3.16,4.84c-1.31,0.75-2.98,1.15-2.98,1.15
			c-3.34,2.53-4.58,6.94-4.58,6.94c-1.44,2.63-2.07,5.78-5.8,2.66c-2.52,6.28-3.18,7.64-3.66,6.36c-0.48-1.28-0.39-2.79-0.96-0.5
			c-0.38,0.96-1.74-1.21-3.6-3.93c-1.68-3.32-2.67-4.99-2.67-4.99c-0.9-1.86-1.09-2.24-2.19-2.39c-1.2-0.53-0.9-1.5-0.9-1.5
			c-1.61,0.05-2.62,0.28-2.62,0.28c-1.22,0.23-1.43,0.62-1.73,1.02c-0.72,0.99-1.33,1.98-2.68-0.1l-3.66-5.16
			c-0.32-0.78-0.53,0.21-1.9-1.72c-1.28,1.4-1.92,2.2-2.78,0.84c-0.65-0.98-2.27-0.75-2.27-0.75c-2.08-0.56-3.83-2.53-4.72-3.93
			c-2.01,0.42-3.7,0.43-3.7,0.43c-1.13-0.8-1.7-1.2-3.38-6.07c-0.92,0-1.38-0.01-2.52-2.66c-1.63-0.02-2.91-0.44-3.49-1.27
			c-0.81-1.45-3.56,0.78-3.91-0.67l0.29-37.96l69.14,6.83L324.4,566.62z"/>
		<polygon class="st21" points="323.9,524.37 257,517.3 306.64,503.72 368.43,511.26 		"/>
		<polygon points="325.99,505.95 342.56,507.59 338.02,512.83 325.28,513.39 		"/>
		<g id="Book">
			<polygon class="st22" points="334.07,514.71 299.34,514.71 299.51,454.4 334.22,453.64 			"/>
			<polygon class="st23" points="334.51,514.71 338.03,512.95 338.03,454.92 334.51,454.04 			"/>
			<g id="Pages">
				<polygon class="st24" points="336.77,513.19 337.46,512.89 338.07,454.92 337.19,454.92 				"/>
				<rect x="335.39" y="454.92" class="st24" width="0.88" height="58.91"/>
			</g>
		</g>
		<g id="Final_Icon_2_">
			<polygon class="st25" points="317.26,486.13 320.64,480.28 313.88,480.28 317.26,486.13 320.64,480.28 313.88,480.28 			"/>
			<polygon class="st25" points="306.6,475.54 312.45,478.92 312.45,472.16 306.6,475.54 312.45,478.92 312.45,472.16 			"/>
			<polygon class="st25" points="327.92,475.54 322.07,472.16 322.07,478.92 327.92,475.54 322.07,472.16 322.07,478.92 			"/>
			<polygon class="st25" points="317.26,464.88 313.88,470.73 320.64,470.73 317.26,464.88 313.88,470.73 320.64,470.73 			"/>
			<circle class="st26" cx="317.28" cy="475.51" r="6.04"/>
			<circle class="st27" cx="317.28" cy="475.51" r="6.04"/>
			<circle class="st26" cx="317.28" cy="475.51" r="4.81"/>
			<circle class="st25" cx="317.28" cy="475.51" r="2.75"/>
			<path class="st28" d="M317.28,476.89c-0.76,0-1.39-0.62-1.39-1.39c0-0.76,0.62-1.39,1.39-1.39s1.39,0.62,1.39,1.39
				C318.66,476.27,318.04,476.89,317.28,476.89z"/>
			<line class="st29" x1="317.26" y1="470.73" x2="317.22" y2="464.91"/>
			<path class="st30" d="M327.88,475.51l-5.82,0.03c-1.28-1.93-4.67-6.62-9.62,0l-5.82,0.03"/>
			<path class="st30" d="M306.63,475.61l5.82-0.03c1.28,1.93,4.67,6.62,9.62,0l5.82-0.03"/>
			<line class="st29" x1="317.26" y1="480.28" x2="317.29" y2="486.1"/>
		</g>
	</g>
	<g id="Mountain_Floating">
		<polygon class="st31" points="571.04,410.92 494.36,402.82 551.26,387.25 622.08,395.9 		"/>
		<path id="Mountain_1_4_" class="st9" d="M571.62,459.34c-2.25,2.66-3.62,5.54-3.62,5.54c-1.5,0.86-3.42,1.32-3.42,1.32
			c-3.82,2.91-5.24,7.96-5.24,7.96c-1.66,3.01-2.37,6.62-6.65,3.05c-2.89,7.2-3.64,8.75-4.2,7.29c-0.55-1.47-0.45-3.19-1.1-0.57
			c-0.44,1.11-2-1.38-4.12-4.51c-1.92-3.81-3.06-5.72-3.06-5.72c-1.03-2.14-1.26-2.56-2.51-2.74c-1.38-0.61-1.03-1.71-1.03-1.71
			c-1.84,0.06-3,0.32-3,0.32c-1.4,0.27-1.63,0.72-1.98,1.17c-0.82,1.14-1.53,2.27-3.07-0.12l-4.19-5.91
			c-0.36-0.89-0.6,0.24-2.18-1.98c-1.47,1.6-2.21,2.52-3.19,0.96c-0.74-1.12-2.6-0.86-2.6-0.86c-2.38-0.64-4.39-2.9-5.41-4.5
			c-2.3,0.48-4.24,0.5-4.24,0.5c-1.29-0.92-1.94-1.38-3.88-6.95c-1.05,0-1.58-0.01-2.89-3.05c-1.87-0.02-3.34-0.51-4.01-1.46
			c-0.93-1.66-4.08,0.9-4.48-0.77l0.34-43.51l79.24,7.83L571.62,459.34z"/>
		<path id="Mountain_2_3_" class="st18" d="M624.04,459.54c-0.36-0.45-1.1-0.69-1.48,0.2c-0.38,0.89-2.41,0.33-4.68-3
			c-1.19-2.31-2.14,0.31-2.14,0.31c-0.79,0.94-2.46-0.79-2.46-0.79c-2.16,0.32-2.72,0.41-3.28,1.14c-0.89-0.52-1.99,0.62-1.99,0.62
			c-0.68,0.42-2.16-0.65-2.16-0.65c-0.88,0.93-2.63,1.67-3.53-0.91c-1.05-0.95-1.24-1.08-1.65,0.25c-0.4,1.33-1.1-0.78-1.1-0.78
			c-0.71-0.84-0.85,0.76-0.85,0.76c-0.27,1.78-1.29,0.2-1.29,0.2c-0.78,0.59-2.42-2.28-2.42-2.28c-0.58,1.19-1.29,2.7-3.85,1.7
			c-0.88,1.53-1.44,2.23-2.79,0.9c-0.98,0.77-1.59,0.4-1.59,0.4c-1.64,1.02-3.38,2.5-4.87,4.53c-1.48,2.01-2.65,3.96-4.61,0.38
			c-0.57-1.25-2.8,3.21-2.8,3.21c-0.45,0.8-0.85,1.29-1.35,1.07l-1.84-12.21l-0.22-42.83l53.94-16.15L624.04,459.54z"/>
		<path id="Mountain_1_5_" d="M600.06,369.47c-2.8-1.58-4.5-3.28-4.5-3.28c-1.82-0.49-4.14-0.73-4.14-0.73
			c-4.56-1.64-6.26-4.56-6.26-4.56c-1.95-1.7-2.8-3.77-7.66-1.58c-3.28-4.01-4.14-4.87-4.74-4.01s-0.49,1.82-1.22,0.36
			c-0.49-0.61-2.19,0.85-4.5,2.68c-2.07,2.19-3.28,3.28-3.28,3.28c-1.09,1.22-1.34,1.46-2.68,1.58c-1.46,0.36-1.09,0.97-1.09,0.97
			c-1.95,0-3.16-0.12-3.16-0.12c-1.46-0.12-1.7-0.36-2.07-0.61c-0.85-0.61-1.58-1.22-3.16,0.12l-4.26,3.28
			c-0.36,0.49-0.61-0.12-2.19,1.09c-1.46-0.85-2.19-1.34-3.16-0.49c-0.73,0.61-2.55,0.49-2.55,0.49c-2.31,0.36-4.26,1.58-5.23,2.43
			c-2.19-0.24-4.01-0.24-4.01-0.24c-1.22,0.49-1.82,0.73-3.65,3.65c-0.97,0-1.46,0-2.68,1.58c-1.7,0-3.04,0.24-3.65,0.73
			c-0.85,0.85-3.65-0.49-4.01,0.36v22.5H600L600.06,369.47z"/>
		<path id="Mountain_1_7_" class="st32" d="M606.1,369.47c-2.8-1.58-4.5-3.28-4.5-3.28c-1.82-0.49-4.14-0.73-4.14-0.73
			c-4.56-1.64-6.26-4.56-6.26-4.56c-1.95-1.7-2.8-3.77-7.66-1.58c-3.28-4.01-4.14-4.87-4.74-4.01s-0.49,1.82-1.22,0.36
			c-0.49-0.61-2.19,0.85-4.5,2.68c-2.07,2.19-3.28,3.28-3.28,3.28c-1.09,1.22-1.34,1.46-2.68,1.58c-1.46,0.36-1.09,0.97-1.09,0.97
			c-1.95,0-3.16-0.12-3.16-0.12c-1.46-0.12-1.7-0.36-2.07-0.61c-0.85-0.61-1.58-1.22-3.16,0.12l-4.26,3.28
			c-0.36,0.49-0.61-0.12-2.19,1.09c-1.46-0.85-2.19-1.34-3.16-0.49c-0.73,0.61-2.55,0.49-2.55,0.49c-2.31,0.36-4.26,1.58-5.23,2.43
			c-2.19-0.24-4.01-0.24-4.01-0.24c-1.22,0.49-1.82,0.73-3.65,3.65c-0.97,0-1.46,0-2.68,1.58c-1.7,0-3.04,0.24-3.65,0.73
			c-0.85,0.85-3.65-0.49-4.01,0.36v22.5h83.81L606.1,369.47z"/>
	</g>
	<g id="PS4_Floating">
		<path id="Mountain_2_4_" class="st18" d="M755.15,551.98c-0.31-0.39-0.95-0.6-1.28,0.18c-0.33,0.77-2.09,0.29-4.04-2.6
			c-1.03-2-1.86,0.27-1.86,0.27c-0.68,0.81-2.13-0.68-2.13-0.68c-1.87,0.28-2.35,0.35-2.84,0.99c-0.77-0.45-1.72,0.53-1.72,0.53
			c-0.59,0.37-1.87-0.56-1.87-0.56c-0.76,0.81-2.27,1.44-3.05-0.78c-0.91-0.82-1.08-0.93-1.43,0.22c-0.35,1.15-0.96-0.67-0.96-0.67
			c-0.61-0.72-0.74,0.66-0.74,0.66c-0.24,1.54-1.12,0.17-1.12,0.17c-0.67,0.51-2.09-1.98-2.09-1.98c-0.5,1.03-1.11,2.33-3.33,1.47
			c-0.76,1.32-1.25,1.93-2.41,0.78c-0.85,0.66-1.37,0.35-1.37,0.35c-1.42,0.88-2.93,2.16-4.22,3.91c-1.28,1.74-2.29,3.43-3.98,0.33
			c-0.49-1.08-2.42,2.77-2.42,2.77c-0.39,0.69-0.73,1.12-1.17,0.92l-1.59-10.56l-0.19-37.05L756,496.69L755.15,551.98z"/>
		<path id="Mountain_1_6_" class="st9" d="M709.8,551.81c-1.95,2.3-3.13,4.79-3.13,4.79c-1.3,0.74-2.96,1.14-2.96,1.14
			c-3.31,2.51-4.54,6.88-4.54,6.88c-1.43,2.6-2.05,5.73-5.75,2.64c-2.5,6.23-3.15,7.57-3.63,6.3c-0.48-1.27-0.39-2.76-0.95-0.5
			c-0.38,0.96-1.73-1.2-3.57-3.9c-1.66-3.29-2.64-4.94-2.64-4.94c-0.89-1.85-1.09-2.22-2.17-2.37c-1.19-0.53-0.9-1.48-0.9-1.48
			c-1.6,0.05-2.6,0.27-2.6,0.27c-1.21,0.23-1.41,0.62-1.72,1.01c-0.71,0.98-1.32,1.97-2.66-0.1l-3.62-5.11
			c-0.31-0.77-0.52,0.21-1.89-1.71c-1.27,1.39-1.91,2.18-2.76,0.83c-0.64-0.97-2.25-0.74-2.25-0.74c-2.06-0.56-3.8-2.51-4.68-3.89
			c-1.99,0.42-3.67,0.43-3.67,0.43c-1.12-0.79-1.68-1.19-3.36-6.02c-0.91,0-1.37-0.01-2.5-2.64c-1.61-0.02-2.89-0.44-3.46-1.26
			c-0.81-1.44-3.53,0.77-3.88-0.67l0.29-37.63l68.54,6.77L709.8,551.81z"/>
		<polygon class="st33" points="709.3,509.93 642.97,502.92 692.19,489.45 753.45,496.93 		"/>
		<g id="PS4">
			<polygon class="st34" points="725.84,487.61 723.51,493.68 702.24,502.72 704.01,497.2 			"/>
			<path class="st34" d="M677.37,496.16l23.3-9.84l24.61,1.28l-21.27,9.05C704.02,496.65,677.39,495.62,677.37,496.16z"/>
			<polygon class="st34" points="701.96,503 674.2,502.49 677.37,496.16 703.45,497.19 			"/>
			<path class="st34" d="M681.98,487.08l23.3-9.84l24.61,1.28l-21.27,9.05C708.63,487.57,682,486.54,681.98,487.08z"/>
			<polygon class="st34" points="730.45,478.53 728.12,484.6 706.85,493.65 708.62,488.13 			"/>
			<polygon class="st34" points="706.57,493.92 678.81,493.41 681.98,487.08 708.06,488.12 			"/>
			<text transform="matrix(0.9998 0.0184 -0.0184 0.9998 677.7798 501.4969)" class="st35 st36 st37">PS4</text>
		</g>
		<g id="Final_Icon_3_">
			<polygon class="st38" points="689.64,567.9 692.44,563.05 686.85,563.05 689.64,567.9 692.44,563.05 686.85,563.05 			"/>
			<polygon class="st38" points="680.82,559.13 685.66,561.93 685.66,556.33 680.82,559.13 685.66,561.93 685.66,556.33 			"/>
			<polygon class="st38" points="698.47,559.13 693.63,556.33 693.63,561.93 698.47,559.13 693.63,556.33 693.63,561.93 			"/>
			<polygon class="st38" points="689.64,550.3 686.85,555.15 692.44,555.15 689.64,550.3 686.85,555.15 692.44,555.15 			"/>
			<circle class="st39" cx="689.66" cy="559.1" r="5"/>
			<circle class="st40" cx="689.66" cy="559.1" r="5"/>
			<circle class="st39" cx="689.66" cy="559.1" r="3.98"/>
			<circle class="st38" cx="689.66" cy="559.1" r="2.28"/>
			<path class="st41" d="M689.66,560.25c-0.63,0-1.15-0.51-1.15-1.15c0-0.63,0.51-1.15,1.15-1.15s1.15,0.51,1.15,1.15
				C690.81,559.73,690.29,560.25,689.66,560.25z"/>
			<line class="st42" x1="689.64" y1="555.15" x2="689.62" y2="550.33"/>
			<path class="st43" d="M698.44,559.1l-4.82,0.03c-1.06-1.6-3.87-5.48-7.96,0l-4.82,0.03"/>
			<path class="st43" d="M680.85,559.19l4.82-0.03c1.06,1.6,3.87,5.48,7.96,0l4.82-0.03"/>
			<line class="st42" x1="689.64" y1="563.05" x2="689.67" y2="567.87"/>
		</g>
	</g>
</g>
<g id="City_Skyline">
	<g id="Skyline_Together">
		<path class="st9" d="M70.61,243.35v41.91h5.53v56.39c4.64,4.64,17.38,11.59,23.56,0v-69.91c4.25-0.77,11.2,0.39,12.75-3.48v19.31
			h3.48v35.15h4.07v5.41c4.43-0.77,13.7-2.32,14.08-6.18h4.25v-11.2h6.95v-4.25h8.11v-3.48h10.43v17.38
			c5.02,8.11,12.93,8.56,18.93,0.39c1.93-8.11,2.7-9.11,2.7-12.67c4.64,3.01,9.66,2.78,10.82,0v-11.28h12.75v-22.4
			c4.25,3.09,10.82,6.57,10.82,6.57v25.49h19.31v-14.29c25.49,15.92,66.82,21.24,97.34,0.39v5.02c6.57,0,12.36-1.16,12.36-4.64
			v-6.57c3.09-3.48,4.64-2.32,4.64-5.02h4.25v28.97h5.41v4.25h6.18v-3.48h6.95v-26.65h2.7v-5.66h2.12v7.78h4.64v4.25
			c2.51,0,12.55,0.58,12.55-1.93v17.96c2.51,1.55,2.08,3.52,9.61,3.67c0,4.2,1.01,5.94,3.33,6.81l3.69,130.85l-6.27,0.27
			c-4.95,2-7.56,16.48,1.72,20.27c-1.46,3.17-0.22,5.49,4.62,5.78c-4.84,5.41,1.83,8.88,1.83,8.88v33.99
			c-4.15,1.31-2.99,5.66,1.55,5.02v44.81v18.54c0,5.79,2.99,12.32,3.86,0c1.55-6.57,1.93-63.35,1.93-63.35
			c3.48-1.16,3.48-4.25,0-5.02l0.39-33.6c4.25-1.16,5.79-5.79,2.22-9.66c0,0,4.73,1.16,5.12-5.79c6.95,0,7.15-17.99,0-19.83h-5.41
			l1.93-90.64l3.48-68.37c0-5.79,1.16-9.27,8.11-2.32h9.66v5.41h5.41v-5.02h8.11c3.86-0.19,5.21-0.77,4.83-3.86v-6.18h7.92
			c0.39,6.18,6.57,2.9,6.57-4.64h6.76c1.55,1.93,2.51,3.09,4.25,2.12v59.29h45.77v-5.99h8.69v-23.37h2.62v-61.61H70.61z"/>
		<path class="st18" d="M720.72,143l-170.14,98.77l0.09,91.99l14.79-12.49l0-3.59c9.05-5.94,25.77-14.98,37.03-31.24
			c2.77-7.42,2.43-8.96,11.44-16.61l0.01,12.39l4.77-4.06l0,3.83l8.2-7.09l0.01,6.76l18.42-16.39c3.29-4.79,5.52-8.61,5.51-12.61
			l4.34-3.73l0,3.63l5.33-4.65l0,4.15l4.23-3.77l0,2.33l3.45-3.11l0,5.16c0.83,2.47-0.21,5.65,3.35,2.28
			c3.45-3.27,4.84-4.59,4.84-4.59l0,4.98c3.88-0.5,13.72-12.51,13.72-12.51c0.52-6.46,1.2-12.27,3.08-14.25l3.32-3.05l0.01,19.62
			l10.54-10.69l0.02,36.73c1.89,1.26,4.03,0.28,7.35-4.04l0.01,22.25l3.2-4.33c0.78-3.75,1.55-19.31,1.29-25.03l1.83-2.24
			L720.72,143z"/>
	</g>
</g>
<g id="Basketball_Court_1_">
	<g id="court_2_">
		<polygon class="st44" points="550.45,241.8 73.81,242.77 245.09,143 718.13,144.26 		"/>
		<polygon class="st45" points="550.45,241.8 73.81,242.77 245.09,143 718.13,144.26 		"/>
		<polygon class="st44" points="98.88,236.75 249.48,149.03 693.99,150.09 546.37,235.97 		"/>
		<polygon class="st46" points="98.88,236.75 249.48,149.03 693.99,150.09 546.37,235.97 		"/>
		<polygon class="st47" points="145.05,209.89 203.39,175.91 305.84,176.02 247.78,209.84 		"/>
		<polygon class="st47" points="492.17,209.72 549.61,176.29 648.76,176.4 591.58,209.67 		"/>
		<path class="st47" d="M318.07,192.94c16.01-9.32,10.55-16.9-12.23-16.92c-22.83-0.03-54.4,7.54-70.46,16.9
			c-16.06,9.36-10.5,16.93,12.39,16.92C270.61,209.83,302.07,202.26,318.07,192.94z"/>
		<path class="st47" d="M561.2,193.02c15.83-9.21,10.66-16.7-11.6-16.73c-22.3-0.02-53.3,7.45-69.19,16.7
			c-15.89,9.25-10.61,16.73,11.76,16.72C514.48,209.71,545.37,202.23,561.2,193.02z"/>
		<path class="st48" d="M342,192.95c41.28-24.03,27.31-43.63-31.5-43.77c-59.15-0.14-141.13,19.43-182.81,43.71
			c-41.67,24.27-26.93,43.86,32.62,43.76C219.51,236.54,300.72,216.98,342,192.95z"/>
		<path class="st49" d="M639.08,147.71c-57.33-0.14-139.39,20.32-182.99,45.69c-43.59,25.37-31.88,45.84,25.86,45.73"/>
		<path class="st49" d="M154.96,239.76c59.22-0.11,142.5-20.88,186.32-46.39c43.83-25.51,31.93-46.32-26.88-46.47"/>
	</g>
	<g id="Final_Icon_1_">
		<polygon class="st50" points="392.81,206.48 407.46,197.31 389.7,195.26 392.81,206.48 407.46,197.31 389.7,195.26 		"/>
		<polygon class="st50" points="376.47,185.34 387.4,192.5 393.57,180.44 376.47,185.34 387.4,192.5 393.57,180.44 		"/>
		<polygon class="st50" points="434.86,190.37 420.37,182.19 412.94,195.23 434.86,190.37 420.37,182.19 412.94,195.23 		"/>
		<polygon class="st50" points="414.11,167 398.66,178.02 417.67,179.09 414.11,167 398.66,178.02 417.67,179.09 		"/>
		<path class="st51" d="M420.37,189.06c3.81-6.6-1.37-12.49-11.12-12.96c-9.2-0.45-18.77,4.16-21.79,10.13
			c-2.94,5.82,1.25,11.24,9.69,12.28C406.09,199.61,416.66,195.47,420.37,189.06z"/>
		<path class="st52" d="M420.37,189.06c3.81-6.6-1.37-12.49-11.12-12.96c-9.2-0.45-18.77,4.16-21.79,10.13
			c-2.94,5.82,1.25,11.24,9.69,12.28C406.09,199.61,416.66,195.47,420.37,189.06z"/>
		<path class="st51" d="M398.34,196.32c-6.81-0.79-10.22-5.14-7.82-9.83c2.45-4.78,10.16-8.42,17.44-8.01
			c7.63,0.43,11.67,5.09,8.72,10.26C413.8,193.8,405.46,197.14,398.34,196.32z"/>
		<path class="st50" d="M400.33,192.62c-3.99-0.41-6.02-2.94-4.58-5.68c1.45-2.77,5.94-4.82,10.09-4.54
			c4.26,0.29,6.49,2.92,4.88,5.82C409.13,191.09,404.43,193.04,400.33,192.62z"/>
		<path class="st53" d="M401.68,190.12c-2.04-0.19-3.08-1.48-2.34-2.87c0.75-1.4,3.03-2.42,5.11-2.26c2.11,0.16,3.2,1.47,2.42,2.91
			C406.09,189.32,403.75,190.32,401.68,190.12z"/>
		<line class="st54" x1="407.88" y1="178.54" x2="413.97" y2="167.07"/>
		<path class="st55" d="M434.79,190.29l-18.19-1.49c-1.66-4.04-6.43-13.76-26.16-2.25l-13.92-1.14"/>
		<path class="st55" d="M376.49,185.47l13.92,1.14c1.45,3.74,5.73,13,26.15,2.26l18.18,1.5"/>
		<line class="st54" x1="398.33" y1="196.25" x2="392.93" y2="206.43"/>
	</g>
</g>
</svg>
