<?xml version="1.0" encoding="utf-8"?>
<!-- Generator: Adobe Illustrator 23.0.2, SVG Export Plug-In . SVG Version: 6.00 Build 0)  -->
<svg version="1.1" id="Layer_1" xmlns="http://www.w3.org/2000/svg" xmlns:xlink="http://www.w3.org/1999/xlink" x="0px" y="0px"
	 viewBox="0 0 414.59 236.4" style="enable-background:new 0 0 414.59 236.4;" xml:space="preserve">
<path d="M286.86,0h-4.09h-10.68H243.1h-15.8v55.47v146.37h-17.58V0h-45.11v111.89c0,12.72,0.81,34.44,2.43,65.16h-1.13L63.22,0H0
	v236.4h39.69h5.1h101.22h63.71h17.58h44.79h98.74h3.45h40.31L286.86,0z M44.79,201.85v-76.69c0-13.47-1.02-36-3.07-67.59h1.46
	l82.97,144.28H44.79z M272.09,201.85v-41.2v-34.55V55.47h0.98l38.15,70.62l18.67,34.55l22.26,41.2H272.09z"/>
</svg>
