<?xml version="1.0" encoding="utf-8"?>
<!-- Generator: Adobe Illustrator 23.0.2, SVG Export Plug-In . SVG Version: 6.00 Build 0)  -->
<svg version="1.1" id="Main_Page" xmlns="http://www.w3.org/2000/svg" xmlns:xlink="http://www.w3.org/1999/xlink" x="0px" y="0px"
	 viewBox="0 0 1366 768" style="enable-background:new 0 0 1366 768;" xml:space="preserve">
<style type="text/css">
	.st0{fill:#E6E6E6;}
	.st1{fill:#FF2600;}
	.st2{fill:#FFFFFF;}
</style>
<rect id="Background" class="st0" width="1366" height="768"/>
<g id="Logo">
	<g id="Left_Logo">
		<rect x="317.18" y="217.58" class="st1" width="331.82" height="332.85"/>
		<polygon class="st2" points="439.88,344.38 439.88,284.55 439.88,263.08 418.41,263.08 376.48,263.08 376.48,284.55 
			418.41,284.55 418.41,344.38 366.26,344.38 366.26,365.34 460.85,365.34 460.85,344.38 		"/>
		<rect x="516.58" y="264.1" class="st2" width="73.63" height="20.45"/>
		<rect x="506.35" y="343.86" class="st2" width="95.1" height="21.47"/>
		<path class="st2" d="M506.35,403.17v102.26h95.1V403.17H506.35z M579.98,483.96h-52.15v-59.82h52.15V483.96z"/>
		<polygon class="st2" points="376.48,403.17 366.26,454.3 386.71,454.3 392.85,424.65 434.77,424.65 423.35,483.96 359.1,483.96 
			356.03,505.43 439.88,505.43 461.36,403.17 		"/>
	</g>
	<g id="Right_Logo">
		<rect x="717" y="217.58" class="st1" width="331.82" height="332.85"/>
		<path class="st2" d="M808.01,263.08v69.53c0,7.91-6.41,14.32-14.32,14.32c-7.91,0-14.32-6.41-14.32-14.32v-69.53h-20.45v71.76
			c0,18.54,15.03,33.56,33.56,33.56h2.41c18.54,0,33.56-15.03,33.56-33.56v-71.76H808.01z"/>
		<polygon class="st2" points="905.15,263.08 905.15,322.06 877.54,263.08 856.07,263.08 856.07,368.41 877.54,368.41 
			877.54,308.06 905.14,368.41 905.15,368.41 905.15,368.41 926.63,368.41 926.63,263.08 		"/>
		<rect x="961.4" y="263.08" class="st2" width="21.47" height="105.32"/>
		<path class="st2" d="M972.64,399.08L972.64,399.08c-19.2,0-34.77,15.57-34.77,34.77v35.79c0,19.2,15.57,34.77,34.77,34.77l0,0
			c19.2,0,34.77-15.57,34.77-34.77v-35.79C1007.41,414.65,991.84,399.08,972.64,399.08z M986.96,469.07
			c0,7.64-6.42,13.86-14.32,13.86s-14.32-6.22-14.32-13.86v-34.65c0-7.64,6.42-13.86,14.32-13.86s14.32,6.22,14.32,13.86V469.07z"/>
		<path class="st2" d="M828.62,525.88l-10.05-30.94c6.12-6.27,9.9-14.83,9.9-24.28v-35.79c0-19.2-15.57-34.77-34.77-34.77
			s-34.77,15.57-34.77,34.77v35.79c0,19.2,15.57,34.77,34.77,34.77c2.26,0,4.46-0.22,6.6-0.63l6.85,21.08H828.62z M779.38,470.09
			v-34.65c0-7.64,6.42-13.86,14.32-13.86s14.32,6.22,14.32,13.86v34.65c0,7.64-6.42,13.86-14.32,13.86S779.38,477.74,779.38,470.09z
			"/>
		<polygon class="st2" points="877.54,483.96 877.54,399.08 856.07,399.08 856.07,483.96 856.07,504.41 877.54,504.41 
			926.63,504.41 926.63,483.96 		"/>
	</g>
</g>
</svg>
