<?xml version="1.0" encoding="utf-8"?>
<!-- Generator: Adobe Illustrator 23.0.3, SVG Export Plug-In . SVG Version: 6.00 Build 0)  -->
<svg version="1.1" id="Promegranade" xmlns="http://www.w3.org/2000/svg" xmlns:xlink="http://www.w3.org/1999/xlink" x="0px"
	 y="0px" viewBox="0 0 674 338.6" style="enable-background:new 0 0 674 338.6;" xml:space="preserve">
<style type="text/css">
	.st0{fill:#EFEFEF;}
	.st1{fill:#F4F4F4;}
	.st2{fill:#EAEAEA;}
	.st3{fill:#E02214;}
	.st4{fill:#E56C5C;}
</style>
<g>
	<g id="Plate">
		<ellipse class="st0" cx="337" cy="222.3" rx="326.9" ry="107.6"/>
		<ellipse class="st1" cx="337" cy="215.6" rx="326.9" ry="107.6"/>
		<ellipse class="st2" cx="337" cy="204.9" rx="229.7" ry="75.5"/>
	</g>
	<g>
		<path class="st3" d="M410,159.7c0,0,46.9,91,157.5,68.9L500.2,8.7L410,159.7z"/>
		<polygon class="st4" points="610.1,212.6 567.6,228.5 500.2,8.7 531.1,8.8 		"/>
		<path class="st3" d="M322.1,199.3c0,0,64.6,79.6,168.2,34.9L379.2,33L322.1,199.3z"/>
		<path d="M355.1,190.2c9.4,4.7,12.4-13.4,12.4-13.4C363.5,177.9,345.6,185.5,355.1,190.2z"/>
		<path d="M414.8,184.4c9.8-3.8-1.9-18.1-1.9-18.1C411.2,170,405.3,188.5,414.8,184.4z"/>
		<path d="M472.8,125.7c9.8-3.8-1.9-18.1-1.9-18.1C469.3,111.3,463.3,129.8,472.8,125.7z"/>
		<path d="M362.1,142.7c4.6,9.4,17.8-3.3,17.8-3.3C376.5,137.7,357.5,133.4,362.1,142.7z"/>
		<path d="M516.9,172.8c4.6,9.4,17.8-3.3,17.8-3.3C531,167.8,512,163.5,516.9,172.8z"/>
		<path d="M491,61.5c-6.1,8.5,11.3,14.1,11.3,14.1C502.2,71.9,497.1,53,491,61.5z"/>
		<polygon class="st4" points="528.7,210.1 490.3,234.2 379.2,33 409.7,26.8 		"/>
	</g>
	<g>
		<path class="st3" d="M182.1,150.9c0,0,27.9,98.5,140.7,98.8L300.5,20.9L182.1,150.9z"/>
		<polygon class="st4" points="367.6,242.6 322.8,249.7 300.5,20.9 330.8,27.1 		"/>
		<path class="st3" d="M88,172.3c0,0,47.5,90.8,157.9,67.7L177.1,20.6L88,172.3z"/>
		<path d="M122.2,169.9c8.3,6.5,14.8-10.7,14.8-10.7C132.9,159.5,113.9,163.3,122.2,169.9z"/>
		<path d="M181.8,176.1c10.4-1.8,1.8-18.1,1.8-18.1C181.2,161.3,171.7,178.2,181.8,176.1z"/>
		<path d="M250.4,130.1c10.4-1.8,1.8-18.1,1.8-18.1C249.8,115.3,240.3,132.2,250.4,130.1z"/>
		<path d="M138.5,124.8c2.7,10.1,18.1,0.3,18.1,0.3C153.6,122.7,135.8,114.7,138.5,124.8z"/>
		<path d="M284.2,185c2.7,10.1,18.1,0.3,18.1,0.3C299.1,182.9,281.2,174.9,284.2,185z"/>
		<path d="M280.9,70.8c-7.7,7.1,8.3,16,8.3,16C289.9,83.2,288.7,63.6,280.9,70.8z"/>
		<polygon class="st4" points="288.4,223.9 245.9,239.9 177.1,20.6 208.2,20.6 		"/>
	</g>
</g>
</svg>
